<?xml version="1.0" encoding="utf-8"?>
<svg version="1.1" xmlns:xlink="http://www.w3.org/1999/xlink" width="81px" height="89px" xmlns="http://www.w3.org/2000/svg">
  <defs>
    <mask fill="white" id="clip1">
      <path d="M 72.5433238636364 35.982421875  C 73.2720170454545 35.2484809027778  73.6363636363636 34.3793402777778  73.6363636363636 33.375  C 73.6363636363636 32.3706597222222  73.2720170454545 31.5015190972222  72.5433238636364 30.767578125  C 71.8146306818182 30.0336371527778  70.9517045454546 29.6666666666667  69.9545454545455 29.6666666666667  C 68.9573863636364 29.6666666666667  68.0944602272727 30.0336371527778  67.3657670454545 30.767578125  C 66.6370738636364 31.5015190972222  66.2727272727273 32.3706597222222  66.2727272727273 33.375  C 66.2727272727273 34.3793402777778  66.6370738636364 35.2484809027778  67.3657670454545 35.982421875  C 68.0944602272727 36.7163628472222  68.9573863636364 37.0833333333333  69.9545454545455 37.0833333333333  C 70.9517045454546 37.0833333333333  71.8146306818182 36.7163628472222  72.5433238636364 35.982421875  Z M 77.7784090909091 25.4947916666667  C 79.9261363636364 27.6579861111111  81 30.2847222222222  81 33.375  C 81 35.7699652777778  80.3192471590909 37.9138454861111  78.9577414772727 39.806640625  C 77.5962357954546 41.6994357638889  75.8224431818182 43.0514322916667  73 43.8626302083333  L 73 66.75  C 73.6363636363636 72.8919270833333  71.1147017045455 78.1357421875  66.0713778409091 82.4814453125  C 61.0280539772727 86.8271484375  54.9588068181818 89  47.8636363636364 89  C 40.7684659090909 89  34.69921875 86.8271484375  29.6558948863636 82.4814453125  C 24.6125710227273 78.1357421875  22.0909090909091 72.8919270833333  22.0909090909091 66.75  L 22.0909090909091 59.1015625  C 15.8011363636364 58.3289930555556  10.546875 55.8567708333333  6.328125 51.6848958333333  C 2.109375 47.5130208333333  0 42.6458333333333  0 37.0833333333333  L 0 7.41666666666667  C 0 6.41232638888888  0.364346590909092 5.54318576388888  1.09303977272727 4.80924479166667  C 1.82173295454546 4.07530381944444  2.68465909090909 3.70833333333333  3.68181818181818 3.70833333333333  C 3.91193181818182 3.70833333333333  4.21875 3.74696180555554  4.60227272727273 3.82421875  C 5.25426136363636 2.66536458333333  6.15553977272727 1.73828125  7.30610795454546 1.04296875  C 8.45667613636364 0.34765625  9.703125 0  11.0454545454545 0  C 13.078125 0  14.8135653409091 0.72428385416667  16.2517755681818 2.1728515625  C 17.6899857954545 3.62141927083333  18.4090909090909 5.36935763888888  18.4090909090909 7.41666666666667  C 18.4090909090909 9.46397569444444  17.6899857954545 11.2119140625  16.2517755681818 12.6604817708333  C 14.8135653409091 14.1090494791667  13.078125 14.8333333333333  11.0454545454545 14.8333333333333  C 9.77982954545455 14.8333333333333  8.55255681818182 14.4856770833333  8 13.7903645833333  L 8 37.0833333333333  C 7.36363636363636 41.1779513888889  9.16619318181818 44.673828125  12.7713068181818 47.5709635416667  C 16.3764204545455 50.4680989583333  20.7102272727273 51.9166666666667  25.7727272727273 51.9166666666667  C 30.8352272727273 51.9166666666667  35.1690340909091 50.4680989583333  38.7741477272727 47.5709635416667  C 42.3792613636364 44.673828125  44.1818181818182 41.1779513888889  44 37.0833333333333  L 44 13.7903645833333  C 42.9928977272727 14.4856770833333  41.765625 14.8333333333333  40.5 14.8333333333333  C 38.4673295454546 14.8333333333333  36.7318892045455 14.1090494791667  35.2936789772727 12.6604817708333  C 33.85546875 11.2119140625  33.1363636363636 9.46397569444444  33.1363636363636 7.41666666666667  C 33.1363636363636 5.36935763888888  33.85546875 3.62141927083333  35.2936789772727 2.1728515625  C 36.7318892045455 0.72428385416667  38.4673295454546 0  40.5 0  C 41.8423295454545 0  43.0887784090909 0.34765625  44.2393465909091 1.04296875  C 45.3899147727273 1.73828125  46.2911931818182 2.66536458333333  46.9431818181818 3.82421875  C 47.3267045454546 3.74696180555554  47.6335227272727 3.70833333333333  47.8636363636364 3.70833333333333  C 48.8607954545455 3.70833333333333  49.7237215909091 4.07530381944444  50.4524147727273 4.80924479166667  C 51.1811079545455 5.54318576388888  51.5454545454545 6.41232638888888  51 7.41666666666667  L 51 37.0833333333333  C 51.5454545454545 42.6458333333333  49.4360795454545 47.5130208333333  45.2173295454545 51.6848958333333  C 40.9985795454546 55.8567708333333  35.7443181818182 58.3289930555556  29.4545454545455 59.1015625  L 29.4545454545455 66.75  C 29.4545454545455 70.8446180555556  31.2571022727273 74.3404947916667  34.8622159090909 77.2376302083333  C 38.4673295454546 80.134765625  42.8011363636364 81.5833333333333  47.8636363636364 81.5833333333333  C 52.9261363636364 81.5833333333333  57.2599431818182 80.134765625  60.8650568181818 77.2376302083333  C 64.4701704545455 74.3404947916667  66.2727272727273 70.8446180555556  66 66.75  L 66 43.8626302083333  C 64.0866477272727 43.0514322916667  62.3128551136364 41.6994357638889  60.9513494318182 39.806640625  C 59.58984375 37.9138454861111  58.9090909090909 35.7699652777778  58.9090909090909 33.375  C 58.9090909090909 30.2847222222222  59.9829545454546 27.6579861111111  62.1306818181818 25.4947916666667  C 64.2784090909091 23.3315972222222  66.8863636363636 22.25  69.9545454545455 22.25  C 73.0227272727273 22.25  75.6306818181818 23.3315972222222  77.7784090909091 25.4947916666667  Z " fill-rule="evenodd" />
    </mask>
  </defs>
  <g transform="matrix(1 0 0 1 -115 -150 )">
    <path d="M 72.5433238636364 35.982421875  C 73.2720170454545 35.2484809027778  73.6363636363636 34.3793402777778  73.6363636363636 33.375  C 73.6363636363636 32.3706597222222  73.2720170454545 31.5015190972222  72.5433238636364 30.767578125  C 71.8146306818182 30.0336371527778  70.9517045454546 29.6666666666667  69.9545454545455 29.6666666666667  C 68.9573863636364 29.6666666666667  68.0944602272727 30.0336371527778  67.3657670454545 30.767578125  C 66.6370738636364 31.5015190972222  66.2727272727273 32.3706597222222  66.2727272727273 33.375  C 66.2727272727273 34.3793402777778  66.6370738636364 35.2484809027778  67.3657670454545 35.982421875  C 68.0944602272727 36.7163628472222  68.9573863636364 37.0833333333333  69.9545454545455 37.0833333333333  C 70.9517045454546 37.0833333333333  71.8146306818182 36.7163628472222  72.5433238636364 35.982421875  Z M 77.7784090909091 25.4947916666667  C 79.9261363636364 27.6579861111111  81 30.2847222222222  81 33.375  C 81 35.7699652777778  80.3192471590909 37.9138454861111  78.9577414772727 39.806640625  C 77.5962357954546 41.6994357638889  75.8224431818182 43.0514322916667  73 43.8626302083333  L 73 66.75  C 73.6363636363636 72.8919270833333  71.1147017045455 78.1357421875  66.0713778409091 82.4814453125  C 61.0280539772727 86.8271484375  54.9588068181818 89  47.8636363636364 89  C 40.7684659090909 89  34.69921875 86.8271484375  29.6558948863636 82.4814453125  C 24.6125710227273 78.1357421875  22.0909090909091 72.8919270833333  22.0909090909091 66.75  L 22.0909090909091 59.1015625  C 15.8011363636364 58.3289930555556  10.546875 55.8567708333333  6.328125 51.6848958333333  C 2.109375 47.5130208333333  0 42.6458333333333  0 37.0833333333333  L 0 7.41666666666667  C 0 6.41232638888888  0.364346590909092 5.54318576388888  1.09303977272727 4.80924479166667  C 1.82173295454546 4.07530381944444  2.68465909090909 3.70833333333333  3.68181818181818 3.70833333333333  C 3.91193181818182 3.70833333333333  4.21875 3.74696180555554  4.60227272727273 3.82421875  C 5.25426136363636 2.66536458333333  6.15553977272727 1.73828125  7.30610795454546 1.04296875  C 8.45667613636364 0.34765625  9.703125 0  11.0454545454545 0  C 13.078125 0  14.8135653409091 0.72428385416667  16.2517755681818 2.1728515625  C 17.6899857954545 3.62141927083333  18.4090909090909 5.36935763888888  18.4090909090909 7.41666666666667  C 18.4090909090909 9.46397569444444  17.6899857954545 11.2119140625  16.2517755681818 12.6604817708333  C 14.8135653409091 14.1090494791667  13.078125 14.8333333333333  11.0454545454545 14.8333333333333  C 9.77982954545455 14.8333333333333  8.55255681818182 14.4856770833333  8 13.7903645833333  L 8 37.0833333333333  C 7.36363636363636 41.1779513888889  9.16619318181818 44.673828125  12.7713068181818 47.5709635416667  C 16.3764204545455 50.4680989583333  20.7102272727273 51.9166666666667  25.7727272727273 51.9166666666667  C 30.8352272727273 51.9166666666667  35.1690340909091 50.4680989583333  38.7741477272727 47.5709635416667  C 42.3792613636364 44.673828125  44.1818181818182 41.1779513888889  44 37.0833333333333  L 44 13.7903645833333  C 42.9928977272727 14.4856770833333  41.765625 14.8333333333333  40.5 14.8333333333333  C 38.4673295454546 14.8333333333333  36.7318892045455 14.1090494791667  35.2936789772727 12.6604817708333  C 33.85546875 11.2119140625  33.1363636363636 9.46397569444444  33.1363636363636 7.41666666666667  C 33.1363636363636 5.36935763888888  33.85546875 3.62141927083333  35.2936789772727 2.1728515625  C 36.7318892045455 0.72428385416667  38.4673295454546 0  40.5 0  C 41.8423295454545 0  43.0887784090909 0.34765625  44.2393465909091 1.04296875  C 45.3899147727273 1.73828125  46.2911931818182 2.66536458333333  46.9431818181818 3.82421875  C 47.3267045454546 3.74696180555554  47.6335227272727 3.70833333333333  47.8636363636364 3.70833333333333  C 48.8607954545455 3.70833333333333  49.7237215909091 4.07530381944444  50.4524147727273 4.80924479166667  C 51.1811079545455 5.54318576388888  51.5454545454545 6.41232638888888  51 7.41666666666667  L 51 37.0833333333333  C 51.5454545454545 42.6458333333333  49.4360795454545 47.5130208333333  45.2173295454545 51.6848958333333  C 40.9985795454546 55.8567708333333  35.7443181818182 58.3289930555556  29.4545454545455 59.1015625  L 29.4545454545455 66.75  C 29.4545454545455 70.8446180555556  31.2571022727273 74.3404947916667  34.8622159090909 77.2376302083333  C 38.4673295454546 80.134765625  42.8011363636364 81.5833333333333  47.8636363636364 81.5833333333333  C 52.9261363636364 81.5833333333333  57.2599431818182 80.134765625  60.8650568181818 77.2376302083333  C 64.4701704545455 74.3404947916667  66.2727272727273 70.8446180555556  66 66.75  L 66 43.8626302083333  C 64.0866477272727 43.0514322916667  62.3128551136364 41.6994357638889  60.9513494318182 39.806640625  C 59.58984375 37.9138454861111  58.9090909090909 35.7699652777778  58.9090909090909 33.375  C 58.9090909090909 30.2847222222222  59.9829545454546 27.6579861111111  62.1306818181818 25.4947916666667  C 64.2784090909091 23.3315972222222  66.8863636363636 22.25  69.9545454545455 22.25  C 73.0227272727273 22.25  75.6306818181818 23.3315972222222  77.7784090909091 25.4947916666667  Z " fill-rule="nonzero" fill="#015478" stroke="none" transform="matrix(1 0 0 1 115 150 )" />
    <path d="M 72.5433238636364 35.982421875  C 73.2720170454545 35.2484809027778  73.6363636363636 34.3793402777778  73.6363636363636 33.375  C 73.6363636363636 32.3706597222222  73.2720170454545 31.5015190972222  72.5433238636364 30.767578125  C 71.8146306818182 30.0336371527778  70.9517045454546 29.6666666666667  69.9545454545455 29.6666666666667  C 68.9573863636364 29.6666666666667  68.0944602272727 30.0336371527778  67.3657670454545 30.767578125  C 66.6370738636364 31.5015190972222  66.2727272727273 32.3706597222222  66.2727272727273 33.375  C 66.2727272727273 34.3793402777778  66.6370738636364 35.2484809027778  67.3657670454545 35.982421875  C 68.0944602272727 36.7163628472222  68.9573863636364 37.0833333333333  69.9545454545455 37.0833333333333  C 70.9517045454546 37.0833333333333  71.8146306818182 36.7163628472222  72.5433238636364 35.982421875  Z " stroke-width="2" stroke="#015478" fill="none" transform="matrix(1 0 0 1 115 150 )" mask="url(#clip1)" />
    <path d="M 77.7784090909091 25.4947916666667  C 79.9261363636364 27.6579861111111  81 30.2847222222222  81 33.375  C 81 35.7699652777778  80.3192471590909 37.9138454861111  78.9577414772727 39.806640625  C 77.5962357954546 41.6994357638889  75.8224431818182 43.0514322916667  73 43.8626302083333  L 73 66.75  C 73.6363636363636 72.8919270833333  71.1147017045455 78.1357421875  66.0713778409091 82.4814453125  C 61.0280539772727 86.8271484375  54.9588068181818 89  47.8636363636364 89  C 40.7684659090909 89  34.69921875 86.8271484375  29.6558948863636 82.4814453125  C 24.6125710227273 78.1357421875  22.0909090909091 72.8919270833333  22.0909090909091 66.75  L 22.0909090909091 59.1015625  C 15.8011363636364 58.3289930555556  10.546875 55.8567708333333  6.328125 51.6848958333333  C 2.109375 47.5130208333333  0 42.6458333333333  0 37.0833333333333  L 0 7.41666666666667  C 0 6.41232638888888  0.364346590909092 5.54318576388888  1.09303977272727 4.80924479166667  C 1.82173295454546 4.07530381944444  2.68465909090909 3.70833333333333  3.68181818181818 3.70833333333333  C 3.91193181818182 3.70833333333333  4.21875 3.74696180555554  4.60227272727273 3.82421875  C 5.25426136363636 2.66536458333333  6.15553977272727 1.73828125  7.30610795454546 1.04296875  C 8.45667613636364 0.34765625  9.703125 0  11.0454545454545 0  C 13.078125 0  14.8135653409091 0.72428385416667  16.2517755681818 2.1728515625  C 17.6899857954545 3.62141927083333  18.4090909090909 5.36935763888888  18.4090909090909 7.41666666666667  C 18.4090909090909 9.46397569444444  17.6899857954545 11.2119140625  16.2517755681818 12.6604817708333  C 14.8135653409091 14.1090494791667  13.078125 14.8333333333333  11.0454545454545 14.8333333333333  C 9.77982954545455 14.8333333333333  8.55255681818182 14.4856770833333  8 13.7903645833333  L 8 37.0833333333333  C 7.36363636363636 41.1779513888889  9.16619318181818 44.673828125  12.7713068181818 47.5709635416667  C 16.3764204545455 50.4680989583333  20.7102272727273 51.9166666666667  25.7727272727273 51.9166666666667  C 30.8352272727273 51.9166666666667  35.1690340909091 50.4680989583333  38.7741477272727 47.5709635416667  C 42.3792613636364 44.673828125  44.1818181818182 41.1779513888889  44 37.0833333333333  L 44 13.7903645833333  C 42.9928977272727 14.4856770833333  41.765625 14.8333333333333  40.5 14.8333333333333  C 38.4673295454546 14.8333333333333  36.7318892045455 14.1090494791667  35.2936789772727 12.6604817708333  C 33.85546875 11.2119140625  33.1363636363636 9.46397569444444  33.1363636363636 7.41666666666667  C 33.1363636363636 5.36935763888888  33.85546875 3.62141927083333  35.2936789772727 2.1728515625  C 36.7318892045455 0.72428385416667  38.4673295454546 0  40.5 0  C 41.8423295454545 0  43.0887784090909 0.34765625  44.2393465909091 1.04296875  C 45.3899147727273 1.73828125  46.2911931818182 2.66536458333333  46.9431818181818 3.82421875  C 47.3267045454546 3.74696180555554  47.6335227272727 3.70833333333333  47.8636363636364 3.70833333333333  C 48.8607954545455 3.70833333333333  49.7237215909091 4.07530381944444  50.4524147727273 4.80924479166667  C 51.1811079545455 5.54318576388888  51.5454545454545 6.41232638888888  51 7.41666666666667  L 51 37.0833333333333  C 51.5454545454545 42.6458333333333  49.4360795454545 47.5130208333333  45.2173295454545 51.6848958333333  C 40.9985795454546 55.8567708333333  35.7443181818182 58.3289930555556  29.4545454545455 59.1015625  L 29.4545454545455 66.75  C 29.4545454545455 70.8446180555556  31.2571022727273 74.3404947916667  34.8622159090909 77.2376302083333  C 38.4673295454546 80.134765625  42.8011363636364 81.5833333333333  47.8636363636364 81.5833333333333  C 52.9261363636364 81.5833333333333  57.2599431818182 80.134765625  60.8650568181818 77.2376302083333  C 64.4701704545455 74.3404947916667  66.2727272727273 70.8446180555556  66 66.75  L 66 43.8626302083333  C 64.0866477272727 43.0514322916667  62.3128551136364 41.6994357638889  60.9513494318182 39.806640625  C 59.58984375 37.9138454861111  58.9090909090909 35.7699652777778  58.9090909090909 33.375  C 58.9090909090909 30.2847222222222  59.9829545454546 27.6579861111111  62.1306818181818 25.4947916666667  C 64.2784090909091 23.3315972222222  66.8863636363636 22.25  69.9545454545455 22.25  C 73.0227272727273 22.25  75.6306818181818 23.3315972222222  77.7784090909091 25.4947916666667  Z " stroke-width="2" stroke="#015478" fill="none" transform="matrix(1 0 0 1 115 150 )" mask="url(#clip1)" />
  </g>
</svg>